<?xml version="1.0" encoding="UTF-8" standalone="no"?>
<!DOCTYPE svg PUBLIC "-//W3C//DTD SVG 1.1//EN"
 "http://www.w3.org/Graphics/SVG/1.1/DTD/svg11.dtd">
<!-- Generated by graphviz version 7.0.4 (0)
 -->
<!-- Title: G Pages: 1 -->
<svg width="656pt" height="161pt"
 viewBox="0.00 0.00 656.20 161.20" xmlns="http://www.w3.org/2000/svg" xmlns:xlink="http://www.w3.org/1999/xlink">
<g id="graph0" class="graph" transform="scale(1 1) rotate(0) translate(21.6 139.6)">
<title>G</title>
<polygon fill="#111111" stroke="none" points="-21.6,21.6 -21.6,-139.6 634.6,-139.6 634.6,21.6 -21.6,21.6"/>
<!-- formatters/csv.ts -->
<g id="node1" class="node">
<title>formatters/csv.ts</title>
<path fill="none" stroke="#ff6c60" d="M108.33,-83C108.33,-83 7.67,-83 7.67,-83 3.83,-83 0,-79.17 0,-75.33 0,-75.33 0,-67.67 0,-67.67 0,-63.83 3.83,-60 7.67,-60 7.67,-60 108.33,-60 108.33,-60 112.17,-60 116,-63.83 116,-67.67 116,-67.67 116,-75.33 116,-75.33 116,-79.17 112.17,-83 108.33,-83"/>
<text text-anchor="middle" x="58" y="-67.8" font-family="Arial" font-size="14.00" fill="#ff6c60">formatters/csv.ts</text>
</g>
<!-- formatters/index.ts -->
<g id="node2" class="node">
<title>formatters/index.ts</title>
<path fill="none" stroke="#ff6c60" d="M272.33,-63C272.33,-63 159.67,-63 159.67,-63 155.83,-63 152,-59.17 152,-55.33 152,-55.33 152,-47.67 152,-47.67 152,-43.83 155.83,-40 159.67,-40 159.67,-40 272.33,-40 272.33,-40 276.17,-40 280,-43.83 280,-47.67 280,-47.67 280,-55.33 280,-55.33 280,-59.17 276.17,-63 272.33,-63"/>
<text text-anchor="middle" x="216" y="-47.8" font-family="Arial" font-size="14.00" fill="#ff6c60">formatters/index.ts</text>
</g>
<!-- formatters/csv.ts&#45;&gt;formatters/index.ts -->
<g id="edge1" class="edge">
<title>formatters/csv.ts&#45;&gt;formatters/index.ts</title>
<path fill="none" stroke="#757575" d="M116.2,-64.17C124.06,-63.16 132.23,-62.11 140.34,-61.07"/>
<polygon fill="#757575" stroke="#757575" points="140.78,-64.54 150.25,-59.8 139.89,-57.6 140.78,-64.54"/>
</g>
<!-- formatters/factory.ts -->
<g id="node3" class="node">
<title>formatters/factory.ts</title>
<path fill="none" stroke="#ff6c60" d="M444.33,-83C444.33,-83 323.67,-83 323.67,-83 319.83,-83 316,-79.17 316,-75.33 316,-75.33 316,-67.67 316,-67.67 316,-63.83 319.83,-60 323.67,-60 323.67,-60 444.33,-60 444.33,-60 448.17,-60 452,-63.83 452,-67.67 452,-67.67 452,-75.33 452,-75.33 452,-79.17 448.17,-83 444.33,-83"/>
<text text-anchor="middle" x="384" y="-67.8" font-family="Arial" font-size="14.00" fill="#ff6c60">formatters/factory.ts</text>
</g>
<!-- formatters/index.ts&#45;&gt;formatters/factory.ts -->
<g id="edge7" class="edge">
<title>formatters/index.ts&#45;&gt;formatters/factory.ts</title>
<path fill="none" stroke="#757575" d="M280.23,-52.54C294.55,-54.01 309.69,-55.86 323.83,-57.88"/>
<polygon fill="#757575" stroke="#757575" points="323.02,-61.29 333.42,-59.3 324.05,-54.37 323.02,-61.29"/>
</g>
<!-- formatters/factory.ts&#45;&gt;formatters/csv.ts -->
<g id="edge2" class="edge">
<title>formatters/factory.ts&#45;&gt;formatters/csv.ts</title>
<path fill="none" stroke="#757575" d="M315.68,-72.25C303.79,-72.35 291.53,-72.44 280,-72.5 223.11,-72.78 208.89,-72.81 152,-72.5 144.01,-72.46 135.63,-72.39 127.31,-72.32"/>
<polygon fill="#757575" stroke="#757575" points="127.6,-68.82 117.56,-72.22 127.53,-75.82 127.6,-68.82"/>
</g>
<!-- formatters/factory.ts&#45;&gt;formatters/index.ts -->
<g id="edge3" class="edge">
<title>formatters/factory.ts&#45;&gt;formatters/index.ts</title>
<path fill="none" stroke="#757575" d="M315.65,-70.03C302.53,-68.63 288.86,-66.93 276.04,-65.11"/>
<polygon fill="#757575" stroke="#757575" points="276.92,-61.7 266.51,-63.69 275.89,-68.62 276.92,-61.7"/>
</g>
<!-- formatters/json.ts -->
<g id="node4" class="node">
<title>formatters/json.ts</title>
<path fill="none" stroke="#ff6c60" d="M603.33,-118C603.33,-118 497.67,-118 497.67,-118 493.83,-118 490,-114.17 490,-110.33 490,-110.33 490,-102.67 490,-102.67 490,-98.83 493.83,-95 497.67,-95 497.67,-95 603.33,-95 603.33,-95 607.17,-95 611,-98.83 611,-102.67 611,-102.67 611,-110.33 611,-110.33 611,-114.17 607.17,-118 603.33,-118"/>
<text text-anchor="middle" x="550.5" y="-102.8" font-family="Arial" font-size="14.00" fill="#ff6c60">formatters/json.ts</text>
</g>
<!-- formatters/factory.ts&#45;&gt;formatters/json.ts -->
<g id="edge4" class="edge">
<title>formatters/factory.ts&#45;&gt;formatters/json.ts</title>
<path fill="none" stroke="#757575" d="M441.15,-83.45C454.31,-86.25 468.47,-89.26 482.07,-92.15"/>
<polygon fill="#757575" stroke="#757575" points="481.33,-95.57 491.84,-94.23 482.79,-88.73 481.33,-95.57"/>
</g>
<!-- formatters/text.ts -->
<g id="node5" class="node">
<title>formatters/text.ts</title>
<path fill="none" stroke="#ff6c60" d="M601.83,-23C601.83,-23 499.17,-23 499.17,-23 495.33,-23 491.5,-19.17 491.5,-15.33 491.5,-15.33 491.5,-7.67 491.5,-7.67 491.5,-3.83 495.33,0 499.17,0 499.17,0 601.83,0 601.83,0 605.67,0 609.5,-3.83 609.5,-7.67 609.5,-7.67 609.5,-15.33 609.5,-15.33 609.5,-19.17 605.67,-23 601.83,-23"/>
<text text-anchor="middle" x="550.5" y="-7.8" font-family="Arial" font-size="14.00" fill="#ff6c60">formatters/text.ts</text>
</g>
<!-- formatters/factory.ts&#45;&gt;formatters/text.ts -->
<g id="edge5" class="edge">
<title>formatters/factory.ts&#45;&gt;formatters/text.ts</title>
<path fill="none" stroke="#757575" d="M417.89,-59.5C443.22,-50.26 478.46,-37.41 506.1,-27.33"/>
<polygon fill="#757575" stroke="#757575" points="507.05,-30.71 515.24,-24 504.65,-24.13 507.05,-30.71"/>
</g>
<!-- formatters/xunit.ts -->
<g id="node6" class="node">
<title>formatters/xunit.ts</title>
<path fill="none" stroke="#ff6c60" d="M605.33,-73C605.33,-73 495.67,-73 495.67,-73 491.83,-73 488,-69.17 488,-65.33 488,-65.33 488,-57.67 488,-57.67 488,-53.83 491.83,-50 495.67,-50 495.67,-50 605.33,-50 605.33,-50 609.17,-50 613,-53.83 613,-57.67 613,-57.67 613,-65.33 613,-65.33 613,-69.17 609.17,-73 605.33,-73"/>
<text text-anchor="middle" x="550.5" y="-57.8" font-family="Arial" font-size="14.00" fill="#ff6c60">formatters/xunit.ts</text>
</g>
<!-- formatters/factory.ts&#45;&gt;formatters/xunit.ts -->
<g id="edge6" class="edge">
<title>formatters/factory.ts&#45;&gt;formatters/xunit.ts</title>
<path fill="none" stroke="#757575" d="M452.38,-67.4C460.19,-66.93 468.19,-66.44 476.07,-65.96"/>
<polygon fill="#757575" stroke="#757575" points="476.23,-69.46 486,-65.36 475.81,-62.47 476.23,-69.46"/>
</g>
<!-- formatters/json.ts&#45;&gt;formatters/index.ts -->
<g id="edge8" class="edge">
<title>formatters/json.ts&#45;&gt;formatters/index.ts</title>
<path fill="none" stroke="#757575" d="M489.71,-108.33C442.07,-108.5 373.98,-105.85 316,-92.5 293.01,-87.21 268.5,-77.1 249.62,-68.24"/>
<polygon fill="#757575" stroke="#757575" points="251.38,-65.2 240.85,-64.01 248.34,-71.51 251.38,-65.2"/>
</g>
<!-- formatters/text.ts&#45;&gt;formatters/index.ts -->
<g id="edge9" class="edge">
<title>formatters/text.ts&#45;&gt;formatters/index.ts</title>
<path fill="none" stroke="#757575" d="M491.15,-18.52C435.68,-25.19 351.99,-35.26 291.68,-42.52"/>
<polygon fill="#757575" stroke="#757575" points="291.34,-39.03 281.83,-43.7 292.17,-45.98 291.34,-39.03"/>
</g>
<!-- formatters/xunit.ts&#45;&gt;formatters/index.ts -->
<g id="edge10" class="edge">
<title>formatters/xunit.ts&#45;&gt;formatters/index.ts</title>
<path fill="none" stroke="#757575" d="M487.69,-53.47C475.87,-52.23 463.57,-51.15 452,-50.5 398.49,-47.49 338.01,-47.83 291.81,-48.88"/>
<polygon fill="#757575" stroke="#757575" points="291.81,-45.38 281.9,-49.12 291.98,-52.38 291.81,-45.38"/>
</g>
</g>
</svg>
